<mxfile host="app.diagrams.net" agent="Mozilla/5.0 (Windows NT 10.0; Win64; x64; rv:142.0) Gecko/20100101 Firefox/142.0" version="28.2.0">
  <diagram name="Page-1" id="oJgHFWgaNCBJmiCIwx_9">
    <mxGraphModel dx="4514" dy="2223" grid="1" gridSize="10" guides="1" tooltips="1" connect="1" arrows="1" fold="1" page="0" pageScale="1" pageWidth="850" pageHeight="1100" background="none" math="0" shadow="0">
      <root>
        <mxCell id="0" />
        <mxCell id="1" parent="0" />
        <mxCell id="lfT0ZGKRR4t4lY79A8cI-3" style="edgeStyle=orthogonalEdgeStyle;rounded=0;orthogonalLoop=1;jettySize=auto;html=1;entryX=0;entryY=0.5;entryDx=0;entryDy=0;" edge="1" parent="1" source="lfT0ZGKRR4t4lY79A8cI-1" target="lfT0ZGKRR4t4lY79A8cI-2">
          <mxGeometry relative="1" as="geometry" />
        </mxCell>
        <mxCell id="lfT0ZGKRR4t4lY79A8cI-1" value="Start" style="strokeWidth=2;html=1;shape=mxgraph.flowchart.start_1;whiteSpace=wrap;" vertex="1" parent="1">
          <mxGeometry x="-30" y="85" width="110" height="90" as="geometry" />
        </mxCell>
        <mxCell id="lfT0ZGKRR4t4lY79A8cI-20" style="edgeStyle=orthogonalEdgeStyle;rounded=0;orthogonalLoop=1;jettySize=auto;html=1;entryX=0.5;entryY=0;entryDx=0;entryDy=0;" edge="1" parent="1" source="lfT0ZGKRR4t4lY79A8cI-2" target="lfT0ZGKRR4t4lY79A8cI-19">
          <mxGeometry relative="1" as="geometry" />
        </mxCell>
        <mxCell id="lfT0ZGKRR4t4lY79A8cI-2" value="&lt;div align=&quot;left&quot;&gt;&lt;span&gt;&lt;span style=&quot;white-space: pre;&quot;&gt;&#x9;&lt;/span&gt;Declarations&lt;/span&gt;&lt;/div&gt;&lt;div align=&quot;left&quot;&gt;&lt;span&gt;&lt;span style=&quot;white-space: pre;&quot;&gt;&#x9;&lt;/span&gt;&lt;span style=&quot;white-space: pre;&quot;&gt;&#x9;string lastName&lt;/span&gt;&lt;/span&gt;&lt;/div&gt;&lt;div align=&quot;left&quot;&gt;&lt;span&gt;&lt;span style=&quot;white-space: pre;&quot;&gt;&lt;span style=&quot;white-space: pre;&quot;&gt;&#x9;&lt;/span&gt;&lt;span style=&quot;white-space: pre;&quot;&gt;&#x9;string numberOfBathroom&lt;/span&gt;&lt;/span&gt;&lt;/span&gt;&lt;/div&gt;&lt;div align=&quot;left&quot;&gt;&lt;span&gt;&lt;span style=&quot;white-space: pre;&quot;&gt;&lt;span style=&quot;white-space: pre;&quot;&gt;&lt;span style=&quot;white-space: pre;&quot;&gt;&#x9;&lt;/span&gt;&lt;span style=&quot;white-space: pre;&quot;&gt;&#x9;&lt;/span&gt;string &lt;/span&gt;&lt;/span&gt;&lt;/span&gt;&lt;span&gt;&lt;span style=&quot;white-space: pre;&quot;&gt;&lt;span style=&quot;white-space: pre;&quot;&gt;numberOfO&lt;/span&gt;&lt;/span&gt;&lt;/span&gt;&lt;span&gt;&lt;span style=&quot;white-space: pre;&quot;&gt;&lt;span style=&quot;white-space: pre;&quot;&gt;therRooms&lt;/span&gt;&lt;/span&gt;&lt;/span&gt;&lt;/div&gt;&lt;div align=&quot;left&quot;&gt;&lt;span&gt;&lt;span style=&quot;white-space: pre;&quot;&gt;&lt;span style=&quot;white-space: pre;&quot;&gt;&#x9;&lt;/span&gt;&lt;span style=&quot;white-space: pre;&quot;&gt;&#x9;bool isServiceInformationReceived&lt;/span&gt;&lt;/span&gt;&lt;/span&gt;&lt;/div&gt;&lt;div align=&quot;left&quot;&gt;&lt;span&gt;&lt;span style=&quot;white-space: pre;&quot;&gt;&lt;span style=&quot;white-space: pre;&quot;&gt;&lt;span style=&quot;white-space: pre;&quot;&gt;&#x9;&lt;/span&gt;&lt;span style=&quot;white-space: pre;&quot;&gt;&#x9;&lt;/span&gt;bool &lt;/span&gt;&lt;/span&gt;&lt;/span&gt;isNextCustomerAvailable&lt;/div&gt;" style="rounded=1;whiteSpace=wrap;html=1;absoluteArcSize=1;arcSize=14;strokeWidth=2;align=left;" vertex="1" parent="1">
          <mxGeometry x="200" y="60" width="290" height="140" as="geometry" />
        </mxCell>
        <mxCell id="lfT0ZGKRR4t4lY79A8cI-29" style="edgeStyle=orthogonalEdgeStyle;rounded=0;orthogonalLoop=1;jettySize=auto;html=1;entryX=0.5;entryY=0;entryDx=0;entryDy=0;" edge="1" parent="1" source="lfT0ZGKRR4t4lY79A8cI-15" target="lfT0ZGKRR4t4lY79A8cI-28">
          <mxGeometry relative="1" as="geometry" />
        </mxCell>
        <mxCell id="lfT0ZGKRR4t4lY79A8cI-15" value="&lt;div&gt;GetServiceCharge()&lt;/div&gt;&lt;div&gt;DisplayServiceChargeDetails()&lt;/div&gt;" style="verticalLabelPosition=middle;verticalAlign=middle;html=1;shape=process;whiteSpace=wrap;rounded=1;size=0.125;arcSize=6;labelPosition=center;align=center;" vertex="1" parent="1">
          <mxGeometry x="225" y="760" width="240" height="140" as="geometry" />
        </mxCell>
        <mxCell id="lfT0ZGKRR4t4lY79A8cI-22" style="edgeStyle=orthogonalEdgeStyle;rounded=0;orthogonalLoop=1;jettySize=auto;html=1;" edge="1" parent="1" source="lfT0ZGKRR4t4lY79A8cI-19" target="lfT0ZGKRR4t4lY79A8cI-21">
          <mxGeometry relative="1" as="geometry" />
        </mxCell>
        <mxCell id="lfT0ZGKRR4t4lY79A8cI-19" value="&lt;div align=&quot;left&quot;&gt;input&amp;nbsp;&lt;/div&gt;&lt;div align=&quot;left&quot;&gt;&lt;span style=&quot;white-space: pre;&quot;&gt;&#x9;&lt;/span&gt;lastName,&amp;nbsp;&lt;/div&gt;&lt;div&gt;&amp;nbsp; &amp;nbsp; numberOfBathroom,&lt;/div&gt;&lt;div align=&quot;left&quot;&gt;&lt;span style=&quot;white-space: pre;&quot;&gt;&#x9;&lt;/span&gt;numberOfOtherRooms&lt;/div&gt;" style="shape=parallelogram;html=1;strokeWidth=2;perimeter=parallelogramPerimeter;whiteSpace=wrap;rounded=1;arcSize=12;size=0.23;" vertex="1" parent="1">
          <mxGeometry x="200" y="290" width="290" height="120" as="geometry" />
        </mxCell>
        <mxCell id="lfT0ZGKRR4t4lY79A8cI-25" style="edgeStyle=orthogonalEdgeStyle;rounded=0;orthogonalLoop=1;jettySize=auto;html=1;entryX=0.5;entryY=1;entryDx=0;entryDy=0;" edge="1" parent="1" source="lfT0ZGKRR4t4lY79A8cI-21" target="lfT0ZGKRR4t4lY79A8cI-23">
          <mxGeometry relative="1" as="geometry" />
        </mxCell>
        <mxCell id="lfT0ZGKRR4t4lY79A8cI-26" value="No" style="edgeLabel;html=1;align=center;verticalAlign=middle;resizable=0;points=[];" vertex="1" connectable="0" parent="lfT0ZGKRR4t4lY79A8cI-25">
          <mxGeometry x="-0.1811" y="1" relative="1" as="geometry">
            <mxPoint as="offset" />
          </mxGeometry>
        </mxCell>
        <mxCell id="lfT0ZGKRR4t4lY79A8cI-27" style="edgeStyle=orthogonalEdgeStyle;rounded=0;orthogonalLoop=1;jettySize=auto;html=1;" edge="1" parent="1" source="lfT0ZGKRR4t4lY79A8cI-21" target="lfT0ZGKRR4t4lY79A8cI-15">
          <mxGeometry relative="1" as="geometry" />
        </mxCell>
        <mxCell id="lfT0ZGKRR4t4lY79A8cI-40" value="&lt;div&gt;Yes&lt;/div&gt;" style="edgeLabel;html=1;align=center;verticalAlign=middle;resizable=0;points=[];" vertex="1" connectable="0" parent="lfT0ZGKRR4t4lY79A8cI-27">
          <mxGeometry x="-0.0167" y="3" relative="1" as="geometry">
            <mxPoint x="-3" as="offset" />
          </mxGeometry>
        </mxCell>
        <mxCell id="lfT0ZGKRR4t4lY79A8cI-21" value="If lastName is not ZZZZ" style="strokeWidth=2;html=1;shape=mxgraph.flowchart.decision;whiteSpace=wrap;" vertex="1" parent="1">
          <mxGeometry x="220" y="480" width="250" height="200" as="geometry" />
        </mxCell>
        <mxCell id="lfT0ZGKRR4t4lY79A8cI-24" style="edgeStyle=orthogonalEdgeStyle;rounded=0;orthogonalLoop=1;jettySize=auto;html=1;entryX=1;entryY=0.25;entryDx=0;entryDy=0;" edge="1" parent="1" source="lfT0ZGKRR4t4lY79A8cI-23" target="lfT0ZGKRR4t4lY79A8cI-19">
          <mxGeometry relative="1" as="geometry" />
        </mxCell>
        <mxCell id="lfT0ZGKRR4t4lY79A8cI-23" value="DisplayZZZZErrorMessage()" style="rounded=1;whiteSpace=wrap;html=1;absoluteArcSize=1;arcSize=14;strokeWidth=2;" vertex="1" parent="1">
          <mxGeometry x="600" y="370" width="200" height="120" as="geometry" />
        </mxCell>
        <mxCell id="lfT0ZGKRR4t4lY79A8cI-28" value="&lt;div align=&quot;left&quot;&gt;&lt;span style=&quot;white-space: pre;&quot;&gt;&#x9;&lt;/span&gt;&lt;span style=&quot;white-space: pre;&quot;&gt;&#x9;&lt;/span&gt;Input&lt;/div&gt;&lt;div align=&quot;left&quot;&gt;&lt;span style=&quot;white-space: pre;&quot;&gt;&lt;span style=&quot;white-space: pre;&quot;&gt;&#x9;&lt;/span&gt;&lt;span style=&quot;white-space: pre;&quot;&gt;&#x9;&lt;/span&gt;&lt;span style=&quot;white-space: pre;&quot;&gt;&#x9;isServiceInformationReceived&lt;/span&gt;&lt;/span&gt;&lt;/div&gt;" style="shape=parallelogram;html=1;strokeWidth=2;perimeter=parallelogramPerimeter;whiteSpace=wrap;rounded=1;arcSize=12;size=0.23;align=left;" vertex="1" parent="1">
          <mxGeometry x="200" y="950" width="290" height="120" as="geometry" />
        </mxCell>
        <mxCell id="lfT0ZGKRR4t4lY79A8cI-41" style="edgeStyle=orthogonalEdgeStyle;rounded=0;orthogonalLoop=1;jettySize=auto;html=1;entryX=1;entryY=0.5;entryDx=0;entryDy=0;" edge="1" parent="1" source="lfT0ZGKRR4t4lY79A8cI-30" target="lfT0ZGKRR4t4lY79A8cI-15">
          <mxGeometry relative="1" as="geometry">
            <Array as="points">
              <mxPoint x="630" y="1270" />
              <mxPoint x="630" y="830" />
            </Array>
          </mxGeometry>
        </mxCell>
        <mxCell id="lfT0ZGKRR4t4lY79A8cI-30" value="&lt;div align=&quot;center&quot;&gt;&lt;span style=&quot;white-space: pre;&quot;&gt;&lt;span style=&quot;white-space: pre;&quot;&gt;isServiceInformationReceived&lt;/span&gt;&lt;/span&gt;&lt;/div&gt;&lt;div align=&quot;center&quot;&gt;&lt;span style=&quot;white-space: pre;&quot;&gt;&lt;span style=&quot;white-space: pre;&quot;&gt;is &lt;/span&gt;&lt;/span&gt;&lt;/div&gt;&lt;div align=&quot;center&quot;&gt;&lt;span style=&quot;white-space: pre;&quot;&gt;&lt;span style=&quot;white-space: pre;&quot;&gt;true&lt;/span&gt;&lt;/span&gt;&lt;/div&gt;" style="strokeWidth=2;html=1;shape=mxgraph.flowchart.decision;whiteSpace=wrap;align=center;" vertex="1" parent="1">
          <mxGeometry x="220" y="1160" width="250" height="220" as="geometry" />
        </mxCell>
        <mxCell id="lfT0ZGKRR4t4lY79A8cI-35" style="edgeStyle=orthogonalEdgeStyle;rounded=0;orthogonalLoop=1;jettySize=auto;html=1;entryX=0;entryY=0.5;entryDx=0;entryDy=0;" edge="1" parent="1" source="lfT0ZGKRR4t4lY79A8cI-32" target="lfT0ZGKRR4t4lY79A8cI-19">
          <mxGeometry relative="1" as="geometry">
            <mxPoint x="60" y="360" as="targetPoint" />
            <Array as="points">
              <mxPoint x="10" y="1760" />
              <mxPoint x="10" y="350" />
            </Array>
          </mxGeometry>
        </mxCell>
        <mxCell id="lfT0ZGKRR4t4lY79A8cI-32" value="&lt;div&gt;ResetPreviousUserData()&lt;/div&gt;" style="verticalLabelPosition=middle;verticalAlign=middle;html=1;shape=process;whiteSpace=wrap;rounded=1;size=0.14;arcSize=6;labelPosition=center;align=center;" vertex="1" parent="1">
          <mxGeometry x="215" y="1680" width="260" height="160" as="geometry" />
        </mxCell>
        <mxCell id="lfT0ZGKRR4t4lY79A8cI-33" style="edgeStyle=orthogonalEdgeStyle;rounded=0;orthogonalLoop=1;jettySize=auto;html=1;entryX=0.5;entryY=0;entryDx=0;entryDy=0;entryPerimeter=0;" edge="1" parent="1" source="lfT0ZGKRR4t4lY79A8cI-28" target="lfT0ZGKRR4t4lY79A8cI-30">
          <mxGeometry relative="1" as="geometry" />
        </mxCell>
        <mxCell id="lfT0ZGKRR4t4lY79A8cI-45" style="edgeStyle=orthogonalEdgeStyle;rounded=0;orthogonalLoop=1;jettySize=auto;html=1;entryX=0.5;entryY=0;entryDx=0;entryDy=0;" edge="1" parent="1" source="lfT0ZGKRR4t4lY79A8cI-43" target="lfT0ZGKRR4t4lY79A8cI-44">
          <mxGeometry relative="1" as="geometry" />
        </mxCell>
        <mxCell id="lfT0ZGKRR4t4lY79A8cI-43" value="DisplayZZZZErrorMessage()" style="strokeWidth=2;html=1;shape=mxgraph.flowchart.start_1;whiteSpace=wrap;" vertex="1" parent="1">
          <mxGeometry x="950" y="85" width="230" height="90" as="geometry" />
        </mxCell>
        <mxCell id="lfT0ZGKRR4t4lY79A8cI-44" value="&lt;div align=&quot;left&quot;&gt;&lt;span style=&quot;white-space: pre;&quot;&gt;&#x9;&lt;/span&gt;Error message&lt;/div&gt;&lt;div align=&quot;left&quot;&gt;&lt;span style=&quot;white-space: pre;&quot;&gt;&#x9;&lt;/span&gt;&lt;span style=&quot;white-space: pre;&quot;&gt;&#x9;&lt;/span&gt;&amp;nbsp;last name cannot be ZZZZ&lt;/div&gt;" style="rounded=1;whiteSpace=wrap;html=1;absoluteArcSize=1;arcSize=14;strokeWidth=2;align=left;" vertex="1" parent="1">
          <mxGeometry x="945" y="275" width="240" height="150" as="geometry" />
        </mxCell>
        <mxCell id="lfT0ZGKRR4t4lY79A8cI-48" style="edgeStyle=orthogonalEdgeStyle;rounded=0;orthogonalLoop=1;jettySize=auto;html=1;entryX=0.5;entryY=0;entryDx=0;entryDy=0;" edge="1" parent="1" source="lfT0ZGKRR4t4lY79A8cI-46" target="lfT0ZGKRR4t4lY79A8cI-47">
          <mxGeometry relative="1" as="geometry" />
        </mxCell>
        <mxCell id="lfT0ZGKRR4t4lY79A8cI-46" value="&lt;div&gt;GetServiceCharge()&lt;/div&gt;" style="strokeWidth=2;html=1;shape=mxgraph.flowchart.start_1;whiteSpace=wrap;" vertex="1" parent="1">
          <mxGeometry x="1350" y="85" width="230" height="90" as="geometry" />
        </mxCell>
        <mxCell id="lfT0ZGKRR4t4lY79A8cI-50" style="edgeStyle=orthogonalEdgeStyle;rounded=0;orthogonalLoop=1;jettySize=auto;html=1;entryX=0.5;entryY=0;entryDx=0;entryDy=0;" edge="1" parent="1" source="lfT0ZGKRR4t4lY79A8cI-47" target="lfT0ZGKRR4t4lY79A8cI-49">
          <mxGeometry relative="1" as="geometry" />
        </mxCell>
        <mxCell id="lfT0ZGKRR4t4lY79A8cI-47" value="&lt;div align=&quot;left&quot;&gt;&lt;span&gt;&lt;span style=&quot;white-space: pre;&quot;&gt;&#x9;&lt;/span&gt;Declarations&lt;/span&gt;&lt;/div&gt;&lt;div align=&quot;left&quot;&gt;&lt;span&gt;&lt;span style=&quot;white-space: pre;&quot;&gt;&lt;span style=&quot;white-space: pre;&quot;&gt;&#x9;&lt;/span&gt;&lt;span style=&quot;white-space: pre;&quot;&gt;&#x9;string numberOfBathroom&lt;/span&gt;&lt;/span&gt;&lt;/span&gt;&lt;/div&gt;&lt;div align=&quot;left&quot;&gt;&lt;span&gt;&lt;span style=&quot;white-space: pre;&quot;&gt;&lt;span style=&quot;white-space: pre;&quot;&gt;&lt;span style=&quot;white-space: pre;&quot;&gt;&#x9;&lt;/span&gt;&lt;span style=&quot;white-space: pre;&quot;&gt;&#x9;&lt;/span&gt;string &lt;/span&gt;&lt;/span&gt;&lt;/span&gt;&lt;span&gt;&lt;span style=&quot;white-space: pre;&quot;&gt;&lt;span style=&quot;white-space: pre;&quot;&gt;numberOfO&lt;/span&gt;&lt;/span&gt;&lt;/span&gt;&lt;span&gt;&lt;span style=&quot;white-space: pre;&quot;&gt;&lt;span style=&quot;white-space: pre;&quot;&gt;therRooms&lt;/span&gt;&lt;/span&gt;&lt;/span&gt;&lt;/div&gt;" style="rounded=1;whiteSpace=wrap;html=1;absoluteArcSize=1;arcSize=14;strokeWidth=2;" vertex="1" parent="1">
          <mxGeometry x="1305" y="275" width="320" height="155" as="geometry" />
        </mxCell>
        <mxCell id="lfT0ZGKRR4t4lY79A8cI-49" value="&lt;div align=&quot;left&quot;&gt;&lt;span style=&quot;white-space: pre;&quot;&gt;&#x9;&lt;/span&gt;&lt;span style=&quot;white-space: pre;&quot;&gt;&#x9;&lt;/span&gt;&lt;span style=&quot;white-space: pre;&quot;&gt;&#x9;&lt;/span&gt;Output&lt;/div&gt;&lt;div&gt;&lt;span style=&quot;white-space: pre;&quot;&gt;&#x9;&lt;/span&gt;&lt;span style=&quot;white-space: pre;&quot;&gt;&#x9;&lt;/span&gt;&lt;span style=&quot;white-space: pre;&quot;&gt;&#x9;&lt;/span&gt;&lt;span style=&quot;white-space: pre;&quot;&gt;&#x9;&lt;/span&gt;&lt;span style=&quot;white-space: pre;&quot;&gt;&lt;/span&gt;numberOfBathrooms.ParseToInt()&lt;/div&gt;&lt;div&gt;&lt;span style=&quot;white-space: pre;&quot;&gt;&#x9;&lt;/span&gt;&lt;span style=&quot;white-space: pre;&quot;&gt;&#x9;&lt;/span&gt;&lt;span style=&quot;white-space: pre;&quot;&gt;&#x9;&lt;/span&gt;&lt;span style=&quot;white-space: pre;&quot;&gt;&#x9;&lt;/span&gt;numberOfOtherRooms.ParseToInt()&lt;/div&gt;&lt;div align=&quot;left&quot;&gt;&lt;span style=&quot;white-space: pre;&quot;&gt;&#x9;&lt;/span&gt;&lt;span style=&quot;white-space: pre;&quot;&gt;&#x9;&lt;/span&gt;&lt;span style=&quot;white-space: pre;&quot;&gt;&#x9;&lt;/span&gt;&lt;span style=&quot;white-space: pre;&quot;&gt;&#x9;&lt;/span&gt;40 + (15 * numberOfBathrooms) + (10 * numberOfOtherRooms)&lt;/div&gt;" style="shape=parallelogram;html=1;strokeWidth=2;perimeter=parallelogramPerimeter;whiteSpace=wrap;rounded=1;arcSize=12;size=0.23;align=left;" vertex="1" parent="1">
          <mxGeometry x="1200" y="560" width="530" height="190" as="geometry" />
        </mxCell>
        <mxCell id="lfT0ZGKRR4t4lY79A8cI-53" style="edgeStyle=orthogonalEdgeStyle;rounded=0;orthogonalLoop=1;jettySize=auto;html=1;" edge="1" parent="1" source="lfT0ZGKRR4t4lY79A8cI-51" target="lfT0ZGKRR4t4lY79A8cI-52">
          <mxGeometry relative="1" as="geometry" />
        </mxCell>
        <mxCell id="lfT0ZGKRR4t4lY79A8cI-51" value="&lt;div&gt;DisplayServiceChargeDetails()&lt;/div&gt;" style="strokeWidth=2;html=1;shape=mxgraph.flowchart.start_1;whiteSpace=wrap;" vertex="1" parent="1">
          <mxGeometry x="2000" y="85" width="230" height="90" as="geometry" />
        </mxCell>
        <mxCell id="lfT0ZGKRR4t4lY79A8cI-60" style="edgeStyle=orthogonalEdgeStyle;rounded=0;orthogonalLoop=1;jettySize=auto;html=1;" edge="1" parent="1" source="lfT0ZGKRR4t4lY79A8cI-52" target="lfT0ZGKRR4t4lY79A8cI-58">
          <mxGeometry relative="1" as="geometry" />
        </mxCell>
        <mxCell id="lfT0ZGKRR4t4lY79A8cI-52" value="&lt;div align=&quot;left&quot;&gt;&lt;span&gt;&lt;span style=&quot;white-space: pre;&quot;&gt;&#x9;&lt;/span&gt;Declarations&lt;/span&gt;&lt;/div&gt;&lt;div align=&quot;left&quot;&gt;&lt;span&gt;&lt;span style=&quot;white-space: pre;&quot;&gt;&#x9;&lt;/span&gt;&lt;span style=&quot;white-space: pre;&quot;&gt;&#x9;string lastName&lt;/span&gt;&lt;/span&gt;&lt;/div&gt;&lt;div align=&quot;left&quot;&gt;&lt;span&gt;&lt;span style=&quot;white-space: pre;&quot;&gt;&lt;span style=&quot;white-space: pre;&quot;&gt;&#x9;&lt;/span&gt;&lt;span style=&quot;white-space: pre;&quot;&gt;&#x9;string numberOfBathroom&lt;/span&gt;&lt;/span&gt;&lt;/span&gt;&lt;/div&gt;&lt;div align=&quot;left&quot;&gt;&lt;span&gt;&lt;span style=&quot;white-space: pre;&quot;&gt;&lt;span style=&quot;white-space: pre;&quot;&gt;&lt;span style=&quot;white-space: pre;&quot;&gt;&#x9;&lt;/span&gt;&lt;span style=&quot;white-space: pre;&quot;&gt;&#x9;&lt;/span&gt;string &lt;/span&gt;&lt;/span&gt;&lt;/span&gt;&lt;span&gt;&lt;span style=&quot;white-space: pre;&quot;&gt;&lt;span style=&quot;white-space: pre;&quot;&gt;numberOfO&lt;/span&gt;&lt;/span&gt;&lt;/span&gt;&lt;span&gt;&lt;span style=&quot;white-space: pre;&quot;&gt;&lt;span style=&quot;white-space: pre;&quot;&gt;therRooms&lt;/span&gt;&lt;/span&gt;&lt;/span&gt;&lt;/div&gt;&lt;div align=&quot;left&quot;&gt;&lt;span&gt;&lt;span style=&quot;white-space: pre;&quot;&gt;&lt;span style=&quot;white-space: pre;&quot;&gt;&lt;span style=&quot;white-space: pre;&quot;&gt;&#x9;&lt;/span&gt;&lt;span style=&quot;white-space: pre;&quot;&gt;&#x9;&lt;/span&gt;string &lt;/span&gt;&lt;/span&gt;&lt;/span&gt;getServiceChargeValue&lt;/div&gt;" style="rounded=1;whiteSpace=wrap;html=1;absoluteArcSize=1;arcSize=14;strokeWidth=2;" vertex="1" parent="1">
          <mxGeometry x="1955" y="262.5" width="320" height="175" as="geometry" />
        </mxCell>
        <mxCell id="lfT0ZGKRR4t4lY79A8cI-54" value="Return" style="strokeWidth=2;html=1;shape=mxgraph.flowchart.terminator;whiteSpace=wrap;" vertex="1" parent="1">
          <mxGeometry x="1015" y="500" width="100" height="60" as="geometry" />
        </mxCell>
        <mxCell id="lfT0ZGKRR4t4lY79A8cI-55" style="edgeStyle=orthogonalEdgeStyle;rounded=0;orthogonalLoop=1;jettySize=auto;html=1;entryX=0.5;entryY=0;entryDx=0;entryDy=0;entryPerimeter=0;" edge="1" parent="1" source="lfT0ZGKRR4t4lY79A8cI-44" target="lfT0ZGKRR4t4lY79A8cI-54">
          <mxGeometry relative="1" as="geometry" />
        </mxCell>
        <mxCell id="lfT0ZGKRR4t4lY79A8cI-56" value="Return" style="strokeWidth=2;html=1;shape=mxgraph.flowchart.terminator;whiteSpace=wrap;" vertex="1" parent="1">
          <mxGeometry x="1415" y="890" width="100" height="60" as="geometry" />
        </mxCell>
        <mxCell id="lfT0ZGKRR4t4lY79A8cI-57" style="edgeStyle=orthogonalEdgeStyle;rounded=0;orthogonalLoop=1;jettySize=auto;html=1;entryX=0.5;entryY=0;entryDx=0;entryDy=0;entryPerimeter=0;" edge="1" parent="1" source="lfT0ZGKRR4t4lY79A8cI-49" target="lfT0ZGKRR4t4lY79A8cI-56">
          <mxGeometry relative="1" as="geometry" />
        </mxCell>
        <mxCell id="lfT0ZGKRR4t4lY79A8cI-58" value="&lt;div align=&quot;left&quot;&gt;&lt;span style=&quot;white-space: pre;&quot;&gt;&#x9;&lt;/span&gt;&lt;span style=&quot;white-space: pre;&quot;&gt;&#x9;&lt;/span&gt;&lt;span style=&quot;white-space: pre;&quot;&gt;&#x9;&lt;/span&gt;&lt;span style=&quot;white-space: pre;&quot;&gt;&#x9;&lt;/span&gt;Output&lt;/div&gt;&lt;div align=&quot;left&quot;&gt;&lt;span style=&quot;white-space: pre;&quot;&gt;&#x9;&lt;/span&gt;&lt;span style=&quot;white-space: pre;&quot;&gt;&#x9;&lt;/span&gt;&lt;span style=&quot;white-space: pre;&quot;&gt;&#x9;&lt;/span&gt;&lt;span style=&quot;white-space: pre;&quot;&gt;&#x9;&lt;/span&gt;&lt;span style=&quot;white-space: pre;&quot;&gt;&#x9;customer name : lastName&lt;/span&gt;&lt;/div&gt;&lt;div align=&quot;left&quot;&gt;&lt;span style=&quot;white-space: pre;&quot;&gt;&lt;span style=&quot;white-space: pre;&quot;&gt;&#x9;&lt;/span&gt;&lt;span style=&quot;white-space: pre;&quot;&gt;&#x9;&lt;/span&gt;&lt;span style=&quot;white-space: pre;&quot;&gt;&#x9;&lt;/span&gt;&lt;span style=&quot;white-space: pre;&quot;&gt;&#x9;&lt;/span&gt;&lt;span style=&quot;white-space: pre;&quot;&gt;&#x9;&lt;/span&gt;number of bathroom: numberOfBathroom&lt;/span&gt;&lt;/div&gt;&lt;div align=&quot;left&quot;&gt;&lt;span style=&quot;white-space: pre;&quot;&gt;&lt;span style=&quot;white-space: pre;&quot;&gt;&#x9;&lt;/span&gt;&lt;span style=&quot;white-space: pre;&quot;&gt;&#x9;&lt;/span&gt;&lt;span style=&quot;white-space: pre;&quot;&gt;&#x9;&lt;/span&gt;&lt;span style=&quot;white-space: pre;&quot;&gt;&#x9;&lt;/span&gt;&lt;span style=&quot;white-space: pre;&quot;&gt;&#x9;&lt;/span&gt;number of other rooms: numberOfOtherRooms&lt;/span&gt;&lt;/div&gt;&lt;div align=&quot;left&quot;&gt;&lt;span style=&quot;white-space: pre;&quot;&gt;&lt;span style=&quot;white-space: pre;&quot;&gt;&#x9;&lt;/span&gt;&lt;span style=&quot;white-space: pre;&quot;&gt;&#x9;&lt;/span&gt;&lt;span style=&quot;white-space: pre;&quot;&gt;&#x9;&lt;/span&gt;&lt;span style=&quot;white-space: pre;&quot;&gt;&#x9;&lt;/span&gt;&lt;span style=&quot;white-space: pre;&quot;&gt;&#x9;&lt;/span&gt;total service charge: getServiceChargeValue&lt;/span&gt;&lt;/div&gt;" style="shape=parallelogram;html=1;strokeWidth=2;perimeter=parallelogramPerimeter;whiteSpace=wrap;rounded=1;arcSize=12;size=0.23;align=left;labelPosition=center;verticalLabelPosition=middle;verticalAlign=middle;" vertex="1" parent="1">
          <mxGeometry x="1785" y="560" width="660" height="290" as="geometry" />
        </mxCell>
        <mxCell id="lfT0ZGKRR4t4lY79A8cI-59" value="Return" style="strokeWidth=2;html=1;shape=mxgraph.flowchart.terminator;whiteSpace=wrap;" vertex="1" parent="1">
          <mxGeometry x="2065" y="960" width="100" height="60" as="geometry" />
        </mxCell>
        <mxCell id="lfT0ZGKRR4t4lY79A8cI-61" style="edgeStyle=orthogonalEdgeStyle;rounded=0;orthogonalLoop=1;jettySize=auto;html=1;entryX=0.5;entryY=0;entryDx=0;entryDy=0;entryPerimeter=0;" edge="1" parent="1" source="lfT0ZGKRR4t4lY79A8cI-58" target="lfT0ZGKRR4t4lY79A8cI-59">
          <mxGeometry relative="1" as="geometry" />
        </mxCell>
        <mxCell id="lfT0ZGKRR4t4lY79A8cI-66" style="edgeStyle=orthogonalEdgeStyle;rounded=0;orthogonalLoop=1;jettySize=auto;html=1;entryX=0.5;entryY=0;entryDx=0;entryDy=0;" edge="1" parent="1" source="lfT0ZGKRR4t4lY79A8cI-62" target="lfT0ZGKRR4t4lY79A8cI-32">
          <mxGeometry relative="1" as="geometry" />
        </mxCell>
        <mxCell id="lfT0ZGKRR4t4lY79A8cI-67" value="Yes" style="edgeLabel;html=1;align=center;verticalAlign=middle;resizable=0;points=[];" vertex="1" connectable="0" parent="lfT0ZGKRR4t4lY79A8cI-66">
          <mxGeometry x="-0.1467" y="-3" relative="1" as="geometry">
            <mxPoint as="offset" />
          </mxGeometry>
        </mxCell>
        <mxCell id="lfT0ZGKRR4t4lY79A8cI-62" value="&lt;div&gt;isNextCustomerAvailable&lt;/div&gt;&lt;div&gt;is&lt;/div&gt;&lt;div&gt;true&lt;/div&gt;" style="strokeWidth=2;html=1;shape=mxgraph.flowchart.decision;whiteSpace=wrap;" vertex="1" parent="1">
          <mxGeometry x="190" y="1460" width="310" height="130" as="geometry" />
        </mxCell>
        <mxCell id="lfT0ZGKRR4t4lY79A8cI-64" style="edgeStyle=orthogonalEdgeStyle;rounded=0;orthogonalLoop=1;jettySize=auto;html=1;entryX=0.5;entryY=0;entryDx=0;entryDy=0;entryPerimeter=0;" edge="1" parent="1" source="lfT0ZGKRR4t4lY79A8cI-30" target="lfT0ZGKRR4t4lY79A8cI-62">
          <mxGeometry relative="1" as="geometry" />
        </mxCell>
        <mxCell id="lfT0ZGKRR4t4lY79A8cI-65" value="Yes" style="edgeLabel;html=1;align=center;verticalAlign=middle;resizable=0;points=[];" vertex="1" connectable="0" parent="lfT0ZGKRR4t4lY79A8cI-64">
          <mxGeometry x="-0.19" y="2" relative="1" as="geometry">
            <mxPoint as="offset" />
          </mxGeometry>
        </mxCell>
        <mxCell id="lfT0ZGKRR4t4lY79A8cI-70" value="End" style="strokeWidth=2;html=1;shape=mxgraph.flowchart.terminator;whiteSpace=wrap;" vertex="1" parent="1">
          <mxGeometry x="630" y="1495" width="100" height="60" as="geometry" />
        </mxCell>
        <mxCell id="lfT0ZGKRR4t4lY79A8cI-71" style="edgeStyle=orthogonalEdgeStyle;rounded=0;orthogonalLoop=1;jettySize=auto;html=1;entryX=0;entryY=0.5;entryDx=0;entryDy=0;entryPerimeter=0;" edge="1" parent="1" source="lfT0ZGKRR4t4lY79A8cI-62" target="lfT0ZGKRR4t4lY79A8cI-70">
          <mxGeometry relative="1" as="geometry" />
        </mxCell>
        <mxCell id="lfT0ZGKRR4t4lY79A8cI-75" style="edgeStyle=orthogonalEdgeStyle;rounded=0;orthogonalLoop=1;jettySize=auto;html=1;entryX=0.5;entryY=0;entryDx=0;entryDy=0;" edge="1" parent="1" source="lfT0ZGKRR4t4lY79A8cI-72" target="lfT0ZGKRR4t4lY79A8cI-73">
          <mxGeometry relative="1" as="geometry" />
        </mxCell>
        <mxCell id="lfT0ZGKRR4t4lY79A8cI-72" value="&lt;div&gt;ResetPreviousUserData()&lt;/div&gt;" style="strokeWidth=2;html=1;shape=mxgraph.flowchart.start_1;whiteSpace=wrap;" vertex="1" parent="1">
          <mxGeometry x="2735" y="110" width="230" height="90" as="geometry" />
        </mxCell>
        <mxCell id="lfT0ZGKRR4t4lY79A8cI-73" value="&lt;div align=&quot;left&quot;&gt;&lt;span&gt;&lt;span style=&quot;white-space: pre;&quot;&gt;&#x9;&lt;/span&gt;Declarations&lt;/span&gt;&lt;/div&gt;&lt;div align=&quot;left&quot;&gt;&lt;span&gt;&lt;span style=&quot;white-space: pre;&quot;&gt;&#x9;&lt;/span&gt;&lt;span style=&quot;white-space: pre;&quot;&gt;&#x9;string lastName&lt;/span&gt;&lt;/span&gt;&lt;/div&gt;&lt;div align=&quot;left&quot;&gt;&lt;span&gt;&lt;span style=&quot;white-space: pre;&quot;&gt;&lt;span style=&quot;white-space: pre;&quot;&gt;&#x9;&lt;/span&gt;&lt;span style=&quot;white-space: pre;&quot;&gt;&#x9;string numberOfBathroom&lt;/span&gt;&lt;/span&gt;&lt;/span&gt;&lt;/div&gt;&lt;div align=&quot;left&quot;&gt;&lt;span&gt;&lt;span style=&quot;white-space: pre;&quot;&gt;&lt;span style=&quot;white-space: pre;&quot;&gt;&lt;span style=&quot;white-space: pre;&quot;&gt;&#x9;&lt;/span&gt;&lt;span style=&quot;white-space: pre;&quot;&gt;&#x9;&lt;/span&gt;string &lt;/span&gt;&lt;/span&gt;&lt;/span&gt;&lt;span&gt;&lt;span style=&quot;white-space: pre;&quot;&gt;&lt;span style=&quot;white-space: pre;&quot;&gt;numberOfO&lt;/span&gt;&lt;/span&gt;&lt;/span&gt;&lt;span&gt;&lt;span style=&quot;white-space: pre;&quot;&gt;&lt;span style=&quot;white-space: pre;&quot;&gt;therRooms&lt;/span&gt;&lt;/span&gt;&lt;/span&gt;&lt;/div&gt;&lt;div align=&quot;left&quot;&gt;&lt;span&gt;&lt;span style=&quot;white-space: pre;&quot;&gt;&lt;span style=&quot;white-space: pre;&quot;&gt;&#x9;&lt;/span&gt;&lt;span style=&quot;white-space: pre;&quot;&gt;&#x9;bool isServiceInformationReceived&lt;/span&gt;&lt;/span&gt;&lt;/span&gt;&lt;/div&gt;&lt;div align=&quot;left&quot;&gt;&lt;span&gt;&lt;span style=&quot;white-space: pre;&quot;&gt;&lt;span style=&quot;white-space: pre;&quot;&gt;&lt;span style=&quot;white-space: pre;&quot;&gt;&#x9;&lt;/span&gt;&lt;span style=&quot;white-space: pre;&quot;&gt;&#x9;&lt;/span&gt;bool &lt;/span&gt;&lt;/span&gt;&lt;/span&gt;isNextCustomerAvailable&lt;/div&gt;" style="rounded=1;whiteSpace=wrap;html=1;absoluteArcSize=1;arcSize=14;strokeWidth=2;align=left;" vertex="1" parent="1">
          <mxGeometry x="2685" y="300" width="330" height="150" as="geometry" />
        </mxCell>
        <mxCell id="lfT0ZGKRR4t4lY79A8cI-74" value="Return" style="strokeWidth=2;html=1;shape=mxgraph.flowchart.terminator;whiteSpace=wrap;" vertex="1" parent="1">
          <mxGeometry x="2800" y="525" width="100" height="60" as="geometry" />
        </mxCell>
        <mxCell id="lfT0ZGKRR4t4lY79A8cI-76" style="edgeStyle=orthogonalEdgeStyle;rounded=0;orthogonalLoop=1;jettySize=auto;html=1;entryX=0.5;entryY=0;entryDx=0;entryDy=0;entryPerimeter=0;" edge="1" parent="1" source="lfT0ZGKRR4t4lY79A8cI-73" target="lfT0ZGKRR4t4lY79A8cI-74">
          <mxGeometry relative="1" as="geometry" />
        </mxCell>
      </root>
    </mxGraphModel>
  </diagram>
</mxfile>
